<svg style="display:none">

<!-- Navigation -->
<symbol id="Dashboard" viewBox="0 0 24 24" fill="none" xmlns="http://www.w3.org/2000/svg"><path fill-rule="evenodd" clip-rule="evenodd" d="M3 6.5C3 3.87479 3.02811 3 6.5 3C9.97189 3 10 3.87479 10 6.5C10 9.12521 10.0111 10 6.5 10C2.98893 10 3 9.12521 3 6.5Z" stroke="#53545C" stroke-width="1.5" stroke-linecap="round" stroke-linejoin="round"/><path fill-rule="evenodd" clip-rule="evenodd" d="M14 6.5C14 3.87479 14.0281 3 17.5 3C20.9719 3 21 3.87479 21 6.5C21 9.12521 21.0111 10 17.5 10C13.9889 10 14 9.12521 14 6.5Z" stroke="#53545C" stroke-width="1.5" stroke-linecap="round" stroke-linejoin="round"/><path fill-rule="evenodd" clip-rule="evenodd" d="M3 17.5C3 14.8748 3.02811 14 6.5 14C9.97189 14 10 14.8748 10 17.5C10 20.1252 10.0111 21 6.5 21C2.98893 21 3 20.1252 3 17.5Z" stroke="#53545C" stroke-width="1.5" stroke-linecap="round" stroke-linejoin="round"/><path fill-rule="evenodd" clip-rule="evenodd" d="M14 17.5C14 14.8748 14.0281 14 17.5 14C20.9719 14 21 14.8748 21 17.5C21 20.1252 21.0111 21 17.5 21C13.9889 21 14 20.1252 14 17.5Z" stroke="#53545C" stroke-width="1.5" stroke-linecap="round" stroke-linejoin="round"/></symbol>
<symbol id="DashboardBulk" viewBox="0 0 24 24" fill="none" xmlns="http://www.w3.org/2000/svg"><path opacity="0.4" d="M16.0756 2H19.4616C20.8639 2 22.0001 3.14585 22.0001 4.55996V7.97452C22.0001 9.38864 20.8639 10.5345 19.4616 10.5345H16.0756C14.6734 10.5345 13.5371 9.38864 13.5371 7.97452V4.55996C13.5371 3.14585 14.6734 2 16.0756 2Z" fill="white"/><path fill-rule="evenodd" clip-rule="evenodd" d="M4.53852 2H7.92449C9.32676 2 10.463 3.14585 10.463 4.55996V7.97452C10.463 9.38864 9.32676 10.5345 7.92449 10.5345H4.53852C3.13626 10.5345 2 9.38864 2 7.97452V4.55996C2 3.14585 3.13626 2 4.53852 2ZM4.53852 13.4655H7.92449C9.32676 13.4655 10.463 14.6114 10.463 16.0255V19.44C10.463 20.8532 9.32676 22 7.92449 22H4.53852C3.13626 22 2 20.8532 2 19.44V16.0255C2 14.6114 3.13626 13.4655 4.53852 13.4655ZM19.4615 13.4655H16.0755C14.6732 13.4655 13.537 14.6114 13.537 16.0255V19.44C13.537 20.8532 14.6732 22 16.0755 22H19.4615C20.8637 22 22 20.8532 22 19.44V16.0255C22 14.6114 20.8637 13.4655 19.4615 13.4655Z" fill="white"/></symbol>
<symbol id="Orders" viewBox="0 0 24 24" fill="none" xmlns="http://www.w3.org/2000/svg"><path fill-rule="evenodd" clip-rule="evenodd" d="M16.5134 21.5H8.16555C5.09919 21.5 2.74679 20.3925 3.41498 15.9348L4.19301 9.8936C4.60491 7.66934 6.02367 6.81808 7.26852 6.81808H17.447C18.7102 6.81808 20.0466 7.73342 20.5225 9.8936L21.3006 15.9348C21.8681 19.889 19.5797 21.5 16.5134 21.5Z" stroke="#53545C" stroke-width="1.5" stroke-linecap="round" stroke-linejoin="round"/><path d="M16.6502 6.5984C16.6502 4.21233 14.716 2.27804 12.3299 2.27804V2.27804C11.1809 2.27317 10.0773 2.7262 9.26308 3.53695C8.44889 4.34771 7.9912 5.44939 7.99121 6.5984H7.99121" stroke="#53545C" stroke-width="1.5" stroke-linecap="round" stroke-linejoin="round"/><path d="M15.296 11.1018H15.2502" stroke="#53545C" stroke-width="1.5" stroke-linecap="round" stroke-linejoin="round"/><path d="M9.46492 11.1018H9.41916" stroke="#53545C" stroke-width="1.5" stroke-linecap="round" stroke-linejoin="round"/></symbol>
<symbol id="OrdersBulk" viewBox="0 0 24 24" fill="none" xmlns="http://www.w3.org/2000/svg"><path fill-rule="evenodd" clip-rule="evenodd" d="M20.9133 16.3147L20.1444 10.1201C19.676 7.90964 18.3503 7 17.0865 7H6.93171C5.65022 7 4.28034 7.84597 3.88264 10.1201L3.1049 16.3147C2.46858 20.8629 4.81062 22 7.86853 22H16.1585C19.2075 22 21.4789 20.3535 20.9133 16.3147ZM9.097 12.1486C8.60889 12.1486 8.21321 11.7413 8.21321 11.2389C8.21321 10.7366 8.60889 10.3293 9.097 10.3293C9.5851 10.3293 9.98079 10.7366 9.98079 11.2389C9.98079 11.7413 9.5851 12.1486 9.097 12.1486ZM14.002 11.2389C14.002 11.7413 14.3977 12.1486 14.8858 12.1486C15.3739 12.1486 15.7696 11.7413 15.7696 11.2389C15.7696 10.7366 15.3739 10.3293 14.8858 10.3293C14.3977 10.3293 14.002 10.7366 14.002 11.2389Z" fill="white"/><path opacity="0.4" d="M16.9739 6.77432C16.977 6.85189 16.9621 6.92913 16.9303 7H15.4932C15.4654 6.92794 15.4506 6.85153 15.4497 6.77432C15.4497 4.85682 13.8899 3.30238 11.9657 3.30238C10.0416 3.30238 8.48184 4.85682 8.48184 6.77432C8.49502 6.84898 8.49502 6.92535 8.48184 7H7.00989C6.9967 6.92535 6.9967 6.84898 7.00989 6.77432C7.12172 4.10591 9.32499 2 12.0049 2C14.6849 2 16.8882 4.10591 17 6.77432H16.9739Z" fill="white"/></symbol>
<symbol id="Customers" viewBox="0 0 24 24" fill="none" xmlns="http://www.w3.org/2000/svg"><path fill-rule="evenodd" clip-rule="evenodd" d="M9.59102 15.2068C13.28 15.2068 16.433 15.7658 16.433 17.9988C16.433 20.2318 13.301 20.8068 9.59102 20.8068C5.90102 20.8068 2.74902 20.2528 2.74902 18.0188C2.74902 15.7848 5.88002 15.2068 9.59102 15.2068Z" stroke="#53545C" stroke-width="1.5" stroke-linecap="round" stroke-linejoin="round"/><path fill-rule="evenodd" clip-rule="evenodd" d="M9.59108 12.0198C7.16908 12.0198 5.20508 10.0568 5.20508 7.63476C5.20508 5.21276 7.16908 3.24976 9.59108 3.24976C12.0121 3.24976 13.9761 5.21276 13.9761 7.63476C13.9851 10.0478 12.0351 12.0108 9.62208 12.0198H9.59108Z" stroke="#53545C" stroke-width="1.5" stroke-linecap="round" stroke-linejoin="round"/><path d="M16.4824 10.8815C18.0834 10.6565 19.3164 9.28253 19.3194 7.61953C19.3194 5.98053 18.1244 4.62053 16.5574 4.36353" stroke="#53545C" stroke-width="1.5" stroke-linecap="round" stroke-linejoin="round"/><path d="M18.5947 14.7322C20.1457 14.9632 21.2287 15.5072 21.2287 16.6272C21.2287 17.3982 20.7187 17.8982 19.8947 18.2112" stroke="#53545C" stroke-width="1.5" stroke-linecap="round" stroke-linejoin="round"/></symbol>
<symbol id="CustomersBulk" viewBox="0 0 24 24" fill="none" xmlns="http://www.w3.org/2000/svg"><path d="M9.34933 14.8579C5.38553 14.8579 2 15.4702 2 17.9175C2 20.3668 5.364 21.0002 9.34933 21.0002C13.3131 21.0002 16.6987 20.3879 16.6987 17.9405C16.6987 15.4913 13.3347 14.8579 9.34933 14.8579Z" fill="white"/><path opacity="0.4" d="M9.34935 12.5248C12.049 12.5248 14.2124 10.4062 14.2124 7.76241C14.2124 5.11865 12.049 3 9.34935 3C6.65072 3 4.48633 5.11865 4.48633 7.76241C4.48633 10.4062 6.65072 12.5248 9.34935 12.5248Z" fill="white"/><path opacity="0.4" d="M16.1738 7.84873C16.1738 9.19505 15.7609 10.4513 15.0368 11.4948C14.9614 11.6021 15.028 11.7468 15.1591 11.7698C15.3411 11.7995 15.528 11.8177 15.7188 11.8216C17.617 11.8704 19.3205 10.6736 19.7912 8.87116C20.4888 6.19674 18.4419 3.79541 15.8342 3.79541C15.5515 3.79541 15.2804 3.82416 15.0162 3.87686C14.98 3.88453 14.9409 3.90177 14.9213 3.93244C14.8959 3.97172 14.9145 4.02251 14.9399 4.05605C15.7237 5.13214 16.1738 6.44205 16.1738 7.84873Z" fill="white"/><path d="M21.7794 15.1693C21.4321 14.4439 20.5935 13.9465 19.3176 13.7022C18.7158 13.5585 17.0857 13.3544 15.57 13.3831C15.5475 13.386 15.5348 13.4013 15.5328 13.4109C15.5299 13.4262 15.5368 13.4492 15.5661 13.4655C16.2667 13.8047 18.9741 15.2804 18.6336 18.3927C18.619 18.5288 18.7295 18.6438 18.8675 18.6246C19.5338 18.5317 21.2481 18.1704 21.7794 17.0474C22.074 16.4533 22.074 15.7634 21.7794 15.1693Z" fill="white"/></symbol>
<symbol id="Inventory" viewBox="0 0 24 24" fill="none" xmlns="http://www.w3.org/2000/svg"><path fill-rule="evenodd" clip-rule="evenodd" d="M21.419 15.732C21.419 19.31 19.31 21.419 15.732 21.419H7.95C4.363 21.419 2.25 19.31 2.25 15.732V7.932C2.25 4.359 3.564 2.25 7.143 2.25H9.143C9.861 2.251 10.537 2.588 10.967 3.163L11.88 4.377C12.312 4.951 12.988 5.289 13.706 5.29H16.536C20.123 5.29 21.447 7.116 21.447 10.767L21.419 15.732Z" stroke="#53545C" stroke-width="1.5" stroke-linecap="round" stroke-linejoin="round"/><path d="M7.48145 14.4629H16.2164" stroke="#53545C" stroke-width="1.5" stroke-linecap="round" stroke-linejoin="round"/></symbol>
<symbol id="InventoryBulk" viewBox="0 0 24 24" fill="none" xmlns="http://www.w3.org/2000/svg"><path opacity="0.4" d="M16.8843 5.11485H13.9413C13.2081 5.11969 12.512 4.79355 12.0474 4.22751L11.0782 2.88762C10.6214 2.31661 9.9253 1.98894 9.19321 2.00028H7.11261C3.37819 2.00028 2.00001 4.19201 2.00001 7.91884V11.9474C1.99536 12.3904 21.9956 12.3898 21.9969 11.9474V10.7761C22.0147 7.04924 20.6721 5.11485 16.8843 5.11485Z" fill="white"/><path fill-rule="evenodd" clip-rule="evenodd" d="M20.8321 6.54329C21.1521 6.91737 21.3993 7.34768 21.5612 7.81219C21.8798 8.76687 22.0273 9.77012 21.9969 10.7759V16.0289C21.9956 16.4714 21.963 16.9132 21.8991 17.3511C21.7775 18.1238 21.5057 18.8653 21.0989 19.5339C20.9119 19.8569 20.6849 20.155 20.4231 20.4213C19.2383 21.5087 17.665 22.0747 16.0574 21.9919H7.93061C6.32049 22.0741 4.74462 21.5083 3.55601 20.4213C3.2974 20.1545 3.07337 19.8564 2.88915 19.5339C2.48475 18.8658 2.21869 18.1236 2.1067 17.3511C2.03549 16.914 1.99981 16.4718 2 16.0289V10.7759C1.99983 10.3372 2.02357 9.89878 2.07113 9.46264C2.08113 9.38612 2.09614 9.31084 2.11098 9.23635C2.13573 9.11216 2.16005 8.99014 2.16005 8.86812C2.25031 8.34179 2.41496 7.83092 2.64908 7.35077C3.34261 5.86891 4.76525 5.11467 7.09481 5.11467H16.8754C18.1802 5.01376 19.4753 5.40656 20.5032 6.21498C20.6215 6.31535 20.7316 6.42515 20.8321 6.54329ZM6.97033 15.5409H17.0355H17.0533C17.2741 15.5505 17.4896 15.4715 17.6517 15.3214C17.8137 15.1714 17.9088 14.9628 17.9157 14.7423C17.9282 14.5485 17.8644 14.3575 17.7379 14.2099C17.5924 14.0116 17.3618 13.8932 17.1155 13.8905H6.97033C6.51365 13.8905 6.14343 14.2599 6.14343 14.7157C6.14343 15.1714 6.51365 15.5409 6.97033 15.5409Z" fill="white"/></symbol>
<symbol id="Conversations" viewBox="0 0 24 24" fill="none" xmlns="http://www.w3.org/2000/svg"><path fill-rule="evenodd" clip-rule="evenodd" d="M19.0714 19.0699C16.0152 22.1263 11.4898 22.7867 7.78642 21.074C7.23971 20.8539 6.79148 20.676 6.36537 20.676C5.17849 20.683 3.70117 21.8339 2.93336 21.067C2.16555 20.2991 3.31726 18.8206 3.31726 17.6266C3.31726 17.2004 3.14642 16.7602 2.92632 16.2124C1.21283 12.5096 1.87411 7.98269 4.93026 4.92721C8.8316 1.02443 15.17 1.02443 19.0714 4.9262C22.9797 8.83501 22.9727 15.1681 19.0714 19.0699Z" stroke="#53545C" stroke-width="1.5" stroke-linecap="round" stroke-linejoin="round"/><path d="M15.9398 12.4131H15.9488" stroke="#53545C" stroke-width="2" stroke-linecap="round" stroke-linejoin="round"/><path d="M11.9301 12.4131H11.9391" stroke="#53545C" stroke-width="2" stroke-linecap="round" stroke-linejoin="round"/><path d="M7.92128 12.4131H7.93028" stroke="#53545C" stroke-width="2" stroke-linecap="round" stroke-linejoin="round"/></symbol>
<symbol id="ConversationsBulk" viewBox="0 0 24 24" fill="none" xmlns="http://www.w3.org/2000/svg"><path opacity="0.4" d="M12.02 2C6.21 2 2 6.74 2 12C2 13.68 2.49 15.41 3.35 16.99C3.51 17.25 3.53 17.58 3.42 17.89L2.75 20.13C2.6 20.67 3.06 21.07 3.57 20.91L5.59 20.31C6.14 20.13 6.57 20.36 7.081 20.67C8.541 21.53 10.36 21.97 12 21.97C16.96 21.97 22 18.14 22 11.97C22 6.65 17.7 2 12.02 2Z" fill="white"/><path fill-rule="evenodd" clip-rule="evenodd" d="M11.9802 13.2896C11.2702 13.2796 10.7002 12.7096 10.7002 11.9996C10.7002 11.2996 11.2802 10.7196 11.9802 10.7296C12.6902 10.7296 13.2602 11.2996 13.2602 12.0096C13.2602 12.7096 12.6902 13.2896 11.9802 13.2896ZM7.36984 13.2896C6.66984 13.2896 6.08984 12.7096 6.08984 12.0096C6.08984 11.2996 6.65984 10.7296 7.36984 10.7296C8.07984 10.7296 8.64984 11.2996 8.64984 12.0096C8.64984 12.7096 8.07984 13.2796 7.36984 13.2896ZM15.31 12.0096C15.31 12.7096 15.88 13.2896 16.59 13.2896C17.3 13.2896 17.87 12.7096 17.87 12.0096C17.87 11.2996 17.3 10.7296 16.59 10.7296C15.88 10.7296 15.31 11.2996 15.31 12.0096Z" fill="white"/></symbol>
<symbol id="Settings" viewBox="0 0 24 24" fill="none" xmlns="http://www.w3.org/2000/svg"><path fill-rule="evenodd" clip-rule="evenodd" d="M20.8064 7.62386L20.184 6.54377C19.6574 5.62985 18.4905 5.31456 17.5753 5.83896V5.83896C17.1397 6.09559 16.6198 6.1684 16.1305 6.04133C15.6411 5.91427 15.2224 5.59776 14.9666 5.16162C14.8021 4.88439 14.7137 4.56864 14.7103 4.24628V4.24628C14.7251 3.72947 14.5302 3.22865 14.1698 2.85791C13.8094 2.48718 13.3143 2.27811 12.7973 2.27832H11.5433C11.0367 2.27831 10.5511 2.48016 10.1938 2.83919C9.83644 3.19822 9.63693 3.68484 9.63937 4.19136V4.19136C9.62435 5.23717 8.77224 6.07706 7.72632 6.07695C7.40397 6.0736 7.08821 5.98519 6.81099 5.82065V5.82065C5.89582 5.29626 4.72887 5.61154 4.20229 6.52546L3.5341 7.62386C3.00817 8.53664 3.31916 9.70285 4.22975 10.2326V10.2326C4.82166 10.5743 5.18629 11.2058 5.18629 11.8893C5.18629 12.5728 4.82166 13.2043 4.22975 13.5461V13.5461C3.32031 14.0722 3.00898 15.2356 3.5341 16.1456V16.1456L4.16568 17.2348C4.4124 17.68 4.82636 18.0085 5.31595 18.1477C5.80554 18.2868 6.3304 18.2251 6.77438 17.9763V17.9763C7.21084 17.7216 7.73094 17.6518 8.2191 17.7824C8.70725 17.9131 9.12299 18.2333 9.37392 18.6719C9.53845 18.9491 9.62686 19.2649 9.63021 19.5872V19.5872C9.63021 20.6438 10.4867 21.5003 11.5433 21.5003H12.7973C13.8502 21.5003 14.7053 20.6494 14.7103 19.5964V19.5964C14.7079 19.0883 14.9086 18.6003 15.2679 18.241C15.6272 17.8817 16.1152 17.6809 16.6233 17.6834C16.9449 17.692 17.2594 17.78 17.5387 17.9396V17.9396C18.4515 18.4656 19.6177 18.1546 20.1474 17.244V17.244L20.8064 16.1456C21.0615 15.7077 21.1315 15.1863 21.001 14.6966C20.8704 14.207 20.55 13.7896 20.1108 13.5369V13.5369C19.6715 13.2842 19.3511 12.8668 19.2206 12.3772C19.09 11.8875 19.16 11.3661 19.4151 10.9282C19.581 10.6386 19.8211 10.3984 20.1108 10.2326V10.2326C21.0159 9.70314 21.3262 8.54374 20.8064 7.63301V7.63301V7.62386Z" stroke="#53545C" stroke-width="1.5" stroke-linecap="round" stroke-linejoin="round"/><circle cx="12.1752" cy="11.8891" r="2.63616" stroke="#53545C" stroke-width="1.5" stroke-linecap="round" stroke-linejoin="round"/></symbol>
<symbol id="SettingsBulk" viewBox="0 0 24 24" fill="none" xmlns="http://www.w3.org/2000/svg"><path d="M12.0117 14.8297C10.4073 14.8297 9.10938 13.5797 9.10938 12.0097C9.10938 10.4397 10.4073 9.17969 12.0117 9.17969C13.6162 9.17969 14.8834 10.4397 14.8834 12.0097C14.8834 13.5797 13.6162 14.8297 12.0117 14.8297Z" fill="white"/><path opacity="0.4" d="M21.2301 14.37C21.036 14.07 20.76 13.77 20.4023 13.58C20.1162 13.44 19.9322 13.21 19.7687 12.94C19.2475 12.08 19.5541 10.95 20.4228 10.44C21.4447 9.87 21.7718 8.6 21.179 7.61L20.4943 6.43C19.9118 5.44 18.6344 5.09 17.6226 5.67C16.7233 6.15 15.5685 5.83 15.0473 4.98C14.8838 4.7 14.7918 4.4 14.8122 4.1C14.8429 3.71 14.7203 3.34 14.5363 3.04C14.1582 2.42 13.4735 2 12.7172 2H11.2763C10.5302 2.02 9.84553 2.42 9.4674 3.04C9.27323 3.34 9.16081 3.71 9.18125 4.1C9.20169 4.4 9.10972 4.7 8.9462 4.98C8.425 5.83 7.27019 6.15 6.38109 5.67C5.35913 5.09 4.09191 5.44 3.49917 6.43L2.81446 7.61C2.23194 8.6 2.55897 9.87 3.57071 10.44C4.43937 10.95 4.74596 12.08 4.23498 12.94C4.06125 13.21 3.87729 13.44 3.59115 13.58C3.24368 13.77 2.93709 14.07 2.77358 14.37C2.39546 14.99 2.4159 15.77 2.79402 16.42L3.49917 17.62C3.87729 18.26 4.58245 18.66 5.31825 18.66C5.66572 18.66 6.0745 18.56 6.40153 18.36C6.65702 18.19 6.96361 18.13 7.30085 18.13C8.31259 18.13 9.16081 18.96 9.18125 19.95C9.18125 21.1 10.1215 22 11.3069 22H12.6968C13.872 22 14.8122 21.1 14.8122 19.95C14.8429 18.96 15.6911 18.13 16.7029 18.13C17.0299 18.13 17.3365 18.19 17.6022 18.36C17.9292 18.56 18.3278 18.66 18.6855 18.66C19.411 18.66 20.1162 18.26 20.4943 17.62L21.2097 16.42C21.5776 15.75 21.6083 14.99 21.2301 14.37Z" fill="white"/></symbol>
<symbol id="Home" viewBox="0 0 16 16" fill="none" xmlns="http://www.w3.org/2000/svg"><path d="M6.09615 13.8548V11.8102C6.09614 11.2921 6.51744 10.8712 7.03928 10.8679H8.9554C9.47957 10.8679 9.9045 11.2898 9.9045 11.8102V13.8489C9.90449 14.2982 10.2697 14.6634 10.7223 14.6667H12.0295C12.6401 14.6683 13.2262 14.4286 13.6584 14.0005C14.0907 13.5725 14.3337 12.9912 14.3337 12.3851V6.57727C14.3336 6.08763 14.115 5.62318 13.7367 5.30904L9.29564 1.78289C8.51933 1.16612 7.41057 1.18605 6.65725 1.8303L2.31167 5.30904C1.91549 5.61392 1.67869 6.07975 1.66699 6.57727V12.3791C1.66699 13.6425 2.69858 14.6667 3.97111 14.6667H5.24852C5.46644 14.6683 5.67598 14.5834 5.83064 14.431C5.9853 14.2786 6.07228 14.0711 6.07227 13.8548H6.09615Z" fill="#5570F1"/></symbol>

</svg>
 